<?xml version="1.0" standalone="no"?>
<!DOCTYPE svg PUBLIC "-//W3C//DTD SVG 20010904//EN"
 "http://www.w3.org/TR/2001/REC-SVG-20010904/DTD/svg10.dtd">
<svg version="1.0" xmlns="http://www.w3.org/2000/svg"
 width="544.000000pt" height="544.000000pt" viewBox="0 0 544.000000 544.000000"
 preserveAspectRatio="xMidYMid meet">
<metadata>
Created by potrace 1.11, written by Peter Selinger 2001-2013
</metadata>
<g transform="translate(0.000000,544.000000) scale(0.100000,-0.100000)"
fill="#000000" stroke="none">
<path d="M4133 5265 c-24 -7 -43 -12 -43 -10 0 2 -28 -10 -62 -27 -55 -26
-134 -84 -218 -158 -14 -12 -47 -40 -74 -63 -27 -23 -54 -47 -60 -52 -6 -6
-51 -44 -101 -85 -49 -41 -97 -82 -105 -90 -19 -17 -51 -45 -135 -115 -32 -27
-66 -57 -75 -65 -8 -8 -38 -33 -65 -55 -27 -22 -57 -47 -65 -56 -8 -9 -58 -52
-110 -95 -87 -73 -136 -113 -164 -139 -6 -5 -40 -35 -76 -65 -36 -30 -67 -57
-70 -60 -3 -3 -45 -39 -95 -80 -49 -41 -97 -82 -105 -90 -8 -8 -40 -35 -70
-60 -30 -25 -67 -56 -81 -70 -15 -14 -42 -37 -60 -52 -19 -14 -47 -38 -64 -53
-16 -14 -48 -40 -69 -58 -21 -18 -52 -44 -68 -59 -16 -16 -30 -28 -33 -28 -2
0 -23 -17 -47 -39 -24 -21 -59 -52 -78 -68 l-34 -31 848 -848 848 -848 32 36
c27 31 89 103 251 293 23 28 102 120 174 205 73 85 149 175 171 200 21 25 53
63 72 85 18 22 35 42 38 45 3 3 30 34 60 70 30 36 57 67 60 70 3 3 30 34 59
70 30 36 60 70 65 75 6 6 31 35 56 65 25 30 52 62 60 71 15 16 41 46 116 135
23 27 111 130 196 229 84 99 162 191 173 204 11 13 25 28 30 35 175 193 227
308 220 480 -2 50 -5 98 -7 106 -15 58 -54 146 -87 195 -31 45 -720 732 -769
767 -38 26 -78 46 -147 73 -55 22 -235 28 -292 10z"/>
<path d="M1634 3213 c-10 -10 -48 -43 -84 -73 -36 -30 -76 -65 -90 -77 -49
-42 -68 -58 -115 -98 -180 -151 -226 -230 -220 -376 3 -59 4 -62 65 -259 23
-74 43 -142 45 -150 2 -8 10 -36 19 -61 l16 -46 -255 -255 -256 -256 482 -481
481 -482 254 255 255 254 47 -15 c26 -8 52 -16 57 -17 13 -3 145 -44 205 -63
196 -64 295 -65 405 -3 43 24 81 59 141 131 38 44 121 140 157 183 10 11 36
41 57 66 21 25 50 59 64 75 14 17 25 33 23 38 -3 10 -1720 1727 -1727 1727 -4
0 -15 -8 -26 -17z"/>
<path d="M546 1043 c-74 -76 -185 -190 -246 -253 -61 -63 -154 -159 -206 -212
l-94 -97 127 -42 c71 -22 135 -43 143 -44 8 -2 16 -4 18 -5 1 -2 5 -3 10 -4 4
-1 21 -6 37 -13 17 -6 59 -20 95 -31 36 -11 122 -38 193 -61 70 -23 183 -59
252 -81 l125 -40 175 176 c151 151 174 179 163 192 -20 24 -650 652 -655 652
-2 0 -64 -62 -137 -137z"/>
</g>
</svg>
